<svg width="35" height="31" viewBox="0 0 35 31" fill="none" xmlns="http://www.w3.org/2000/svg">
<path d="M0.972222 2.74161C0.435279 2.74161 0 2.12788 0 1.37081C0 0.61373 0.435279 0 0.972222 0H34.0278C34.5647 0 35 0.61373 35 1.37081C35 2.12788 34.5647 2.74161 34.0278 2.74161H0.972222ZM0.972222 16.4497C0.435279 16.4497 0 15.8359 0 15.0789C0 14.3218 0.435279 13.7081 0.972222 13.7081H34.0278C34.5647 13.7081 35 14.3218 35 15.0789C35 15.8359 34.5647 16.4497 34.0278 16.4497H0.972222ZM0.972222 30.1577C0.435279 30.1577 0 29.544 0 28.7869C0 28.0298 0.435279 27.4161 0.972222 27.4161H34.0278C34.5647 27.4161 35 28.0298 35 28.7869C35 29.544 34.5647 30.1577 34.0278 30.1577H0.972222Z" fill="black"/>
</svg>
