<svg width="45" height="45" viewBox="0 0 45 45" fill="none" xmlns="http://www.w3.org/2000/svg">
<path d="M22.5004 43.4273C10.5895 43.4273 0.900391 33.8861 0.900391 22.1569C0.900391 10.4277 10.5895 0.886475 22.5004 0.886475C34.4113 0.886475 44.1004 10.4277 44.1004 22.1569C44.1004 33.8861 34.4113 43.4273 22.5004 43.4273ZM8.92867 37.3896C12.5554 40.5276 17.3057 42.4303 22.5004 42.4303C27.6937 42.4303 32.4454 40.5276 36.0707 37.3896H36.0566C36.0566 31.3782 31.9209 26.0883 25.9977 24.5249C25.7952 24.4723 25.649 24.3033 25.6251 24.0998C25.5998 23.8976 25.7066 23.6996 25.8895 23.604C28.2491 22.3618 29.7145 19.9551 29.7145 17.3254C29.7145 13.3925 26.4716 10.1923 22.4863 10.1923C18.501 10.1923 15.2568 13.3925 15.2568 17.3254C15.2568 19.9551 16.7221 22.3618 19.0818 23.604C19.2646 23.6996 19.3701 23.8976 19.3462 24.0998C19.3223 24.3019 19.1746 24.4723 18.9749 24.5249C13.0673 26.0828 8.94414 31.3727 8.94414 37.3896H8.92867ZM27.3309 23.8879C32.8335 25.7948 36.6768 30.7745 37.041 36.495C40.7746 32.824 43.0879 27.7515 43.0879 22.1569C43.0879 10.9775 33.8531 1.88353 22.5004 1.88353C11.1477 1.88353 1.91289 10.9775 1.91289 22.1569C1.91289 27.7515 4.22617 32.824 7.95977 36.495C8.32258 30.7689 12.1532 25.792 17.639 23.8879C15.5212 22.3729 14.2429 19.9468 14.2429 17.3254C14.2429 12.8428 17.9399 9.19523 22.4835 9.19523C27.0285 9.19523 30.7256 12.8414 30.7256 17.3254C30.727 19.9468 29.4487 22.3729 27.3309 23.8879Z" fill="black"/>
</svg>
