<svg width="36" height="36" viewBox="0 0 36 36" fill="none" xmlns="http://www.w3.org/2000/svg">
<path d="M33.6505 15.3129V30.6813C33.6505 33.4144 31.435 35.6299 28.7019 35.6299H22.7636C22.217 35.6299 21.7739 35.1868 21.7739 34.6402V22.7636C21.7739 22.217 21.3308 21.7739 20.7842 21.7739H14.8458C14.2992 21.7739 13.8561 22.217 13.8561 22.7636V34.6402C13.8561 35.1868 13.413 35.6299 12.8664 35.6299H6.92807C4.19503 35.6299 1.97947 33.4144 1.97947 30.6813V15.3129L1.61892 15.6098C1.19698 15.9573 0.573236 15.8969 0.225753 15.475C-0.121729 15.053 -0.061367 14.4293 0.360576 14.0818L17.1858 0.225725C17.5513 -0.0752418 18.0787 -0.0752418 18.4442 0.225725L35.2694 14.0818C35.6914 14.4293 35.7517 15.053 35.4042 15.475C35.0568 15.8969 34.433 15.9573 34.0111 15.6098L33.6505 15.3129ZM31.6844 13.6937L17.815 2.27186L3.94565 13.6937C3.95437 13.7465 3.95891 13.8008 3.95891 13.8561V30.6813C3.95891 32.3212 5.28825 33.6505 6.92807 33.6505H11.8767V22.7636C11.8767 21.1238 13.206 19.7944 14.8458 19.7944H20.7842C22.424 19.7944 23.7533 21.1238 23.7533 22.7636V33.6505H28.7019C30.3418 33.6505 31.6711 32.3212 31.6711 30.6813V13.8561C31.6711 13.8008 31.6756 13.7465 31.6844 13.6937Z" fill="black"/>
</svg>
