<svg width="46" height="46" viewBox="0 0 46 46" fill="none" xmlns="http://www.w3.org/2000/svg">
<path d="M22.6939 11.7849C21.3032 11.7849 19.9438 12.1973 18.7875 12.9699C17.6312 13.7425 16.73 14.8406 16.1978 16.1254C15.6656 17.4102 15.5264 18.824 15.7977 20.1879C16.069 21.5518 16.7387 22.8047 17.722 23.788C18.7053 24.7713 19.9582 25.441 21.3221 25.7123C22.6861 25.9836 24.0998 25.8444 25.3846 25.3122C26.6694 24.78 27.7675 23.8788 28.5401 22.7225C29.3127 21.5662 29.7251 20.2068 29.7251 18.8162C29.7251 16.9514 28.9843 15.1629 27.6657 13.8443C26.3471 12.5257 24.5587 11.7849 22.6939 11.7849ZM22.6939 23.0349C21.8595 23.0349 21.0438 22.7875 20.35 22.3239C19.6563 21.8604 19.1155 21.2015 18.7962 20.4306C18.4769 19.6597 18.3934 18.8115 18.5562 17.9931C18.7189 17.1748 19.1207 16.4231 19.7107 15.8331C20.3007 15.2431 21.0525 14.8413 21.8708 14.6785C22.6892 14.5157 23.5374 14.5992 24.3083 14.9185C25.0792 15.2379 25.7381 15.7786 26.2016 16.4723C26.6652 17.1661 26.9126 17.9818 26.9126 18.8162C26.9113 19.9347 26.4665 21.007 25.6756 21.7979C24.8847 22.5888 23.8123 23.0336 22.6939 23.0349Z" fill="black"/>
<path d="M22.6939 3.34741C18.8 3.34741 14.9937 4.50206 11.7561 6.66535C8.51847 8.82864 5.99508 11.9034 4.50498 15.5008C3.01488 19.0983 2.625 23.0568 3.38465 26.8758C4.14429 30.6948 6.01935 34.2027 8.77269 36.9561C11.526 39.7094 15.034 41.5845 18.853 42.3441C22.672 43.1038 26.6305 42.7139 30.2279 41.2238C33.8254 39.7337 36.9001 37.2103 39.0634 33.9727C41.2267 30.7351 42.3814 26.9287 42.3814 23.0349C42.3755 17.8153 40.2994 12.8111 36.6085 9.12024C32.9177 5.42939 27.9135 3.35329 22.6939 3.34741ZM14.2564 37.6269V35.6912C14.2576 34.5727 14.7025 33.5003 15.4934 32.7094C16.2843 31.9185 17.3566 31.4736 18.4751 31.4724H26.9126C28.0311 31.4736 29.1035 31.9185 29.8944 32.7094C30.6853 33.5003 31.1301 34.5727 31.1314 35.6912V37.6269C28.5708 39.122 25.659 39.9099 22.6939 39.9099C19.7288 39.9099 16.8169 39.122 14.2564 37.6269ZM33.9333 35.5868C33.9054 33.7422 33.1538 31.9823 31.8405 30.6866C30.5272 29.3909 28.7575 28.6631 26.9126 28.6599H18.4751C16.6302 28.6631 14.8605 29.3909 13.5472 30.6866C12.234 31.9823 11.4824 33.7422 11.4544 35.5868C8.90426 33.3097 7.1059 30.3118 6.29745 26.9899C5.489 23.6681 5.70861 20.179 6.92718 16.9847C8.14575 13.7905 10.3058 11.0417 13.1213 9.1023C15.9369 7.16294 19.275 6.12451 22.6939 6.12451C26.1127 6.12451 29.4509 7.16294 32.2664 9.1023C35.0819 11.0417 37.242 13.7905 38.4605 16.9847C39.6791 20.179 39.8987 23.6681 39.0903 26.9899C38.2818 30.3118 36.4835 33.3097 33.9333 35.5868Z" fill="black"/>
</svg>
