<svg width="45" height="37" viewBox="0 0 45 37" fill="none" xmlns="http://www.w3.org/2000/svg">
<path d="M32.7502 36.4141H12.2324C8.97658 36.4141 6.27372 34.0827 5.75161 31.0227L5.74625 30.9847L2.60213 12.3307H42.3978L39.2537 30.9847C38.7261 34.0827 36.0233 36.4141 32.7675 36.4141H32.7492H32.7502L32.7502 36.4141ZM12.2654 34.4875H32.7634C35.0532 34.4875 36.9541 32.8476 37.3208 30.6955L37.3246 30.6688L40.0892 14.2574H4.91093L7.67544 30.6688C8.04603 32.8477 9.9468 34.4875 12.2365 34.4875H12.2506H12.2498H12.2654ZM45 14.2574H0V12.3307H45V14.2574ZM14.1065 16.9932H12.15V13.1014L17.8435 0L19.6415 0.759126L14.1064 13.4867L14.1065 16.9932ZM32.85 16.9932H30.8935V13.4866L25.3564 0.770767L27.1564 4.3251e-05L32.85 13.1015V16.9932ZM23.4782 29.9213H21.5218V20.6925H23.4782V29.9213ZM15.9848 29.9213H14.0282V20.6925H15.9848V29.9213ZM30.9717 29.9213H29.0152V20.6925H30.9717L30.9717 29.9213Z" fill="black"/>
</svg>
