<svg width="30" height="30" viewBox="0 0 30 30" fill="none" xmlns="http://www.w3.org/2000/svg">
<path d="M13.7755 0C13.4694 0 13.1633 0.15 12.8571 0.3L0.765306 6.9C0.306122 7.2 0 7.65 0 8.25V21.75C0 22.35 0.306122 22.8 0.765306 23.1L12.8571 29.7C13.1633 29.85 13.4694 30 13.7755 30C14.0816 30 14.3878 29.85 14.6939 29.7L16.0714 28.95C15.6122 28.05 15.4592 27 15.3061 25.95V15.9L24.4898 10.8V16.5C25.5612 16.5 26.6327 16.65 27.551 16.95V8.25C27.551 7.65 27.2449 7.2 26.7857 6.9L14.6939 0.3C14.3878 0.15 14.0816 0 13.7755 0ZM13.7755 3.3L22.9592 8.25L19.898 9.9L10.8673 4.8L13.7755 3.3ZM7.80612 6.45L16.8367 11.7L13.7755 13.35L4.59184 8.25L7.80612 6.45ZM3.06122 10.8L12.2449 15.9V25.95L3.06122 20.85V10.8ZM28.0102 20.7L22.5 26.1L20.051 23.7L18.3673 25.5L22.6531 30L30 22.8L28.0102 20.7Z" fill="#3A0CA3"/>
</svg>
