<svg width="30" height="30" viewBox="0 0 30 30" fill="none" xmlns="http://www.w3.org/2000/svg">
<path d="M26.475 7.50004L16.1625 1.59379C15.8067 1.3968 15.4067 1.29346 15 1.29346C14.5933 1.29346 14.1933 1.3968 13.8375 1.59379L3.52502 7.50004C3.16491 7.70574 2.86583 8.00329 2.65831 8.36235C2.45078 8.7214 2.34224 9.12908 2.34377 9.54379V20.625C2.37072 21.0108 2.49268 21.3838 2.69879 21.711C2.90489 22.0381 3.18873 22.3092 3.52502 22.5L13.8375 28.3313C14.1933 28.5283 14.5933 28.6316 15 28.6316C15.4067 28.6316 15.8067 28.5283 16.1625 28.3313L26.475 22.5C26.8113 22.3092 27.0951 22.0381 27.3012 21.711C27.5073 21.3838 27.6293 21.0108 27.6563 20.625V9.46879C27.6448 9.06687 27.5301 8.67466 27.3232 8.32987C27.1163 7.98508 26.8242 7.69931 26.475 7.50004ZM13.8375 25.7063L9.84377 23.4563V13.5188L13.8375 15.6938V25.7063ZM15 13.6688L11.1 11.5313L20.1188 6.52504L24.0375 8.73754L15 13.6688ZM15 3.63754L17.7375 5.17504L8.66252 10.2188L5.96252 8.73754L15 3.63754ZM4.68752 10.7063L7.50002 12.2438V22.125L4.68752 20.625V10.7063ZM16.1625 25.7063V15.6938L25.3125 10.7063V20.625L16.1625 25.7063Z" fill="#FFFDFA"/>
</svg>
