<svg width="36" height="31" viewBox="0 0 36 31" fill="none" xmlns="http://www.w3.org/2000/svg">
<path d="M26.2002 31H9.78592C7.18126 31 5.01898 29.0152 4.60129 26.4102L4.597 26.3779L2.08171 10.4974H33.9182L31.4029 26.3779C30.9809 29.0152 28.8187 31 26.214 31H26.1994H26.2002L26.2002 31ZM9.81236 29.3598H26.2107C28.0426 29.3598 29.5632 27.9637 29.8567 26.1316L29.8596 26.1089L32.0713 12.1376H3.92875L6.14036 26.1089C6.43683 27.9638 7.95744 29.3598 9.78922 29.3598H9.80047H9.79984H9.81236ZM36 12.1375H0V10.4973H36V12.1375ZM11.2852 14.4666H9.72V11.1534L14.2748 0L15.7132 0.646258L11.2852 11.4815L11.2852 14.4666ZM26.28 14.4666H24.7148V11.4814L20.2852 0.656168L21.7252 3.68204e-05L26.28 11.1535V14.4666ZM18.7826 25.4725H17.2174V17.6159H18.7826V25.4725ZM12.7878 25.4725H11.2226V17.6159H12.7878V25.4725ZM24.7774 25.4725H23.2121V17.6159H24.7774L24.7774 25.4725Z" fill="#FFFDFA"/>
</svg>
