<svg width="30" height="30" viewBox="0 0 30 30" fill="none" xmlns="http://www.w3.org/2000/svg">
<path d="M22.5 23.125C22.0027 23.125 21.5258 22.9275 21.1742 22.5758C20.8225 22.2242 20.625 21.7473 20.625 21.25C20.625 20.7527 20.8225 20.2758 21.1742 19.9242C21.5258 19.5725 22.0027 19.375 22.5 19.375C22.9973 19.375 23.4742 19.5725 23.8258 19.9242C24.1775 20.2758 24.375 20.7527 24.375 21.25C24.375 21.7473 24.1775 22.2242 23.8258 22.5758C23.4742 22.9275 22.9973 23.125 22.5 23.125ZM24.375 11.875L26.825 15H21.25V11.875M7.5 23.125C7.00272 23.125 6.52581 22.9275 6.17417 22.5758C5.82254 22.2242 5.625 21.7473 5.625 21.25C5.625 20.7527 5.82254 20.2758 6.17417 19.9242C6.52581 19.5725 7.00272 19.375 7.5 19.375C7.99728 19.375 8.47419 19.5725 8.82583 19.9242C9.17746 20.2758 9.375 20.7527 9.375 21.25C9.375 21.7473 9.17746 22.2242 8.82583 22.5758C8.47419 22.9275 7.99728 23.125 7.5 23.125ZM25 10H21.25V5H3.75C2.3625 5 1.25 6.1125 1.25 7.5V21.25H3.75C3.75 22.2446 4.14509 23.1984 4.84835 23.9017C5.55161 24.6049 6.50544 25 7.5 25C8.49456 25 9.44839 24.6049 10.1517 23.9017C10.8549 23.1984 11.25 22.2446 11.25 21.25H18.75C18.75 22.2446 19.1451 23.1984 19.8483 23.9017C20.5516 24.6049 21.5054 25 22.5 25C23.4946 25 24.4484 24.6049 25.1517 23.9017C25.8549 23.1984 26.25 22.2446 26.25 21.25H28.75V15L25 10Z" fill="#FFFDFA"/>
</svg>
