<svg width="37" height="37" viewBox="0 0 37 37" fill="none" xmlns="http://www.w3.org/2000/svg">
<path d="M29.5134 28.2993C29.5931 28.379 29.6563 28.4736 29.6995 28.5778C29.7426 28.682 29.7648 28.7936 29.7648 28.9063C29.7648 29.0191 29.7426 29.1307 29.6995 29.2348C29.6563 29.339 29.5931 29.4336 29.5134 29.5134C29.4336 29.5931 29.339 29.6563 29.2348 29.6995C29.1307 29.7426 29.0191 29.7648 28.9063 29.7648C28.7936 29.7648 28.682 29.7426 28.5778 29.6995C28.4736 29.6563 28.379 29.5931 28.2993 29.5134L18.5001 19.7286L8.70085 29.5134C8.53986 29.6744 8.3215 29.7648 8.09382 29.7648C7.86614 29.7648 7.64779 29.6744 7.48679 29.5134C7.3258 29.3524 7.23535 29.134 7.23535 28.9063C7.23535 28.6786 7.3258 28.4603 7.48679 28.2993L17.2716 18.5001L7.48679 8.70085C7.3258 8.53986 7.23535 8.3215 7.23535 8.09382C7.23535 7.86614 7.3258 7.64779 7.48679 7.48679C7.64779 7.3258 7.86614 7.23535 8.09382 7.23535C8.3215 7.23535 8.53986 7.3258 8.70085 7.48679L18.5001 17.2716L28.2993 7.48679C28.4603 7.3258 28.6786 7.23535 28.9063 7.23535C29.134 7.23535 29.3524 7.3258 29.5134 7.48679C29.6744 7.64779 29.7648 7.86614 29.7648 8.09382C29.7648 8.3215 29.6744 8.53986 29.5134 8.70085L19.7286 18.5001L29.5134 28.2993Z" fill="white"/>
</svg>
